<?xml version="1.0" encoding="UTF-8"?>
<svg id="Layer_2" data-name="Layer 2" xmlns="http://www.w3.org/2000/svg" width="23.68" height="22.79" viewBox="0 0 23.68 22.79">
  <g id="Layer_1-2" data-name="Layer 1">
    <g>
      <polygon points="13.21 21.46 13.21 15.85 10.12 18.94 13.21 21.46"/>
      <path d="M15.64,14.09v2.23c2.1-.74,3.51-2.72,3.51-4.94,0-.44-.07-.87-.18-1.29l-1.92,1.92c-.17,.86-.68,1.61-1.41,2.08Z"/>
      <path d="M20.76,8.3c.41,.93,.66,1.94,.66,3.02,0,3.52-2.4,6.51-5.78,7.3v2.05c4.53-.83,7.8-4.74,7.8-9.36,0-1.64-.42-3.18-1.15-4.53l-1.52,1.52Z"/>
      <path d="M23.68,2.13l-2.13-2.13-3,3c-.89-.49-1.86-.85-2.91-1.05v2.05c.49,.12,.96,.29,1.4,.5l-3.82,3.82V1.16L5.06,7.8H0v7.03H5.06l.91,.74L.88,20.66l2.13,2.13L23.68,2.13Z"/>
    </g>
  </g>
</svg>